<?xml version="1.0" encoding="UTF-8" standalone="no"?>
<svg
   xmlns:dc="http://purl.org/dc/elements/1.1/"
   xmlns:cc="http://creativecommons.org/ns#"
   xmlns:rdf="http://www.w3.org/1999/02/22-rdf-syntax-ns#"
   xmlns:svg="http://www.w3.org/2000/svg"
   xmlns="http://www.w3.org/2000/svg"
   id="svg4412"
   version="1.1"
   viewBox="0 0 35.630305 35.646214"
   height="35.646214mm"
   width="35.630306mm">
  <defs
     id="defs4406">
    <clipPath
       id="clipPath1556"
       clipPathUnits="userSpaceOnUse">
      <path
         id="path1554"
         d="m 242.762,448.246 h 35.55 v -71.091 h -35.55 z" />
    </clipPath>
    <clipPath
       id="clipPath1708"
       clipPathUnits="userSpaceOnUse">
      <path
         id="path1706"
         d="M 365.557,372.594 H 455.07 V 359.197 H 365.557 Z" />
    </clipPath>
    <clipPath
       id="clipPath1300"
       clipPathUnits="userSpaceOnUse">
      <path
         id="path1298"
         d="m 367.886,300.778 h 65.195 V 235.58 h -65.195 z" />
    </clipPath>
    <clipPath
       id="clipPath1372"
       clipPathUnits="userSpaceOnUse">
      <path
         id="path1370"
         d="M 363.392,237.141 H 403.03 V 205.229 H 363.392 Z" />
    </clipPath>
    <clipPath
       id="clipPath1616"
       clipPathUnits="userSpaceOnUse">
      <path
         id="path1614"
         d="M 57.2368,150.854 H 130.65 V 77.4414 H 57.2368 Z" />
    </clipPath>
    <clipPath
       id="clipPath664"
       clipPathUnits="userSpaceOnUse">
      <path
         id="path662"
         d="m 262.361,66.1875 h 30.868 V 44.2773 h -30.868 z" />
    </clipPath>
    <clipPath
       id="clipPath680"
       clipPathUnits="userSpaceOnUse">
      <path
         id="path678"
         d="m 206.024,83.7422 h 33.13 v -18.583 h -33.13 z" />
    </clipPath>
    <clipPath
       id="clipPath786"
       clipPathUnits="userSpaceOnUse">
      <path
         id="path784"
         d="m 61,448.16 h 64.61 v -70.1 H 61 Z" />
    </clipPath>
    <clipPath
       id="clipPath1064"
       clipPathUnits="userSpaceOnUse">
      <path
         id="path1062"
         d="m 170,444.75 h 70.24 V 377.41 H 170 Z" />
    </clipPath>
    <clipPath
       id="clipPath1120"
       clipPathUnits="userSpaceOnUse">
      <path
         id="path1118"
         d="m 289.83,436.26 h 63.56 v -58.67 h -63.56 z" />
    </clipPath>
    <clipPath
       id="clipPath1158"
       clipPathUnits="userSpaceOnUse">
      <path
         id="path1156"
         d="m 402.08,432.49 h 65.86 v -54.83 h -65.86 z" />
    </clipPath>
    <clipPath
       id="clipPath1182"
       clipPathUnits="userSpaceOnUse">
      <path
         id="path1180"
         d="M 397.86,434.26 H 430.9 V 409.1 h -33.04 z" />
    </clipPath>
    <clipPath
       id="clipPath32"
       clipPathUnits="userSpaceOnUse">
      <path
         id="path30"
         d="m 54.02,326.01 h 70.94 V 260.67 H 54.02 Z" />
    </clipPath>
    <clipPath
       id="clipPath824"
       clipPathUnits="userSpaceOnUse">
      <path
         id="path822"
         d="m 175.93,327.18 h 64.13 v -65.26 h -64.13 z" />
    </clipPath>
    <clipPath
       id="clipPath844"
       clipPathUnits="userSpaceOnUse">
      <path
         id="path842"
         d="m 183.243,324.715 h 25.326 v -33.647 h -25.326 z" />
    </clipPath>
    <clipPath
       id="clipPath908"
       clipPathUnits="userSpaceOnUse">
      <path
         id="path906"
         d="m 197.267,316.041 h 19.948 v -35.416 h -19.948 z" />
    </clipPath>
    <clipPath
       id="clipPath124"
       clipPathUnits="userSpaceOnUse">
      <path
         id="path122"
         d="m 291.95,324.64 h 62.06 v -63.89 h -62.06 z" />
    </clipPath>
    <clipPath
       id="clipPath146"
       clipPathUnits="userSpaceOnUse">
      <path
         id="path144"
         d="m 283.858,324.585 h 46.95 v -27.81 h -46.95 z" />
    </clipPath>
    <clipPath
       id="clipPath166"
       clipPathUnits="userSpaceOnUse">
      <path
         id="path164"
         d="m 286.145,322.192 h 3.077 v -3.077 h -3.077 z" />
    </clipPath>
    <clipPath
       id="clipPath182"
       clipPathUnits="userSpaceOnUse">
      <path
         id="path180"
         d="m 286.145,318.236 h 3.077 v -8.572 h -3.077 z" />
    </clipPath>
  </defs>
  <metadata
     id="metadata4409">
    <rdf:RDF>
      <cc:Work
         rdf:about="">
        <dc:format>image/svg+xml</dc:format>
        <dc:type
           rdf:resource="http://purl.org/dc/dcmitype/StillImage" />
        <dc:title></dc:title>
      </cc:Work>
    </rdf:RDF>
  </metadata>
  <g
     transform="translate(55.565765,18.788339)"
     id="layer1">
    <g
       id="g3523"
       transform="matrix(0.35277777,0,0,-0.35277777,-146.18261,107.84468)">
      <g
         id="g114"
         transform="translate(355.0313,308.4551)">
        <path
           d="m 0,0 c 0,-3.33 -0.34,-6.57 -0.99,-9.7 -4.3,-20.8 -22.15,-36.64 -43.92,-37.88 -0.91,-0.05 -1.83,-0.08 -2.76,-0.08 -26.32,0 -47.66,21.34 -47.66,47.66 0,26.33 21.34,47.67 47.66,47.67 C -21.34,47.67 0,26.33 0,0"
           style="fill:#ffcd02;fill-opacity:1;fill-rule:nonzero;stroke:none"
           id="path116" />
      </g>
      <g
         id="g118">
        <g
           id="g120" />
        <g
           id="g132">
          <g
             clip-path="url(#clipPath124)"
             id="g130"
             style="opacity:0.5">
            <g
               transform="translate(354.0098,298.6299)"
               id="g128">
              <path
                 d="m 0,0 c -4.3,-20.8 -22.149,-36.64 -43.92,-37.88 l -18.14,23.91 h 10.17 v 5.75 l 32.37,34.23 z"
                 style="fill:#ffa800;fill-opacity:1;fill-rule:nonzero;stroke:none"
                 id="path126" />
            </g>
          </g>
        </g>
      </g>
      <g
         id="g134"
         transform="translate(331.1758,327.9565)">
        <path
           d="m 0,0 h -47.686 c -1.83,0 -3.316,-1.484 -3.316,-3.315 v -30.913 c 0,-1.831 1.486,-3.315 3.316,-3.315 H 0 c 1.83,0 3.316,1.483 3.316,3.315 V -3.315 C 3.316,-1.484 1.83,0 0,0"
           style="fill:#ffffff;fill-opacity:1;fill-rule:nonzero;stroke:none"
           id="path136" />
      </g>
      <path
         d="m 330.808,296.775 h -46.949 v 27.81 h 46.949 z"
         style="fill:#bdc3c7;fill-opacity:1;fill-rule:nonzero;stroke:none"
         id="path138" />
      <g
         id="g140">
        <g
           id="g142" />
        <g
           id="g154">
          <g
             clip-path="url(#clipPath146)"
             id="g152"
             style="opacity:0.19999701">
            <g
               transform="translate(330.8076,296.7754)"
               id="g150">
              <path
                 d="M 0,0 H -46.949 L 0,27.81 Z"
                 style="fill:#bdc3c7;fill-opacity:1;fill-rule:nonzero;stroke:none"
                 id="path148" />
            </g>
          </g>
        </g>
      </g>
      <g
         id="g156"
         transform="translate(317.6006,288.0913)">
        <path
           d="M 0,0 H -5.059 V 2.322 H -15.477 V 0 h -4.882 c -1.85,0 -5.294,-0.122 -5.294,-3.429 H 5.294 C 5.294,-0.188 2.048,0 0,0"
           style="fill:#2b2b2b;fill-opacity:1;fill-rule:nonzero;stroke:none"
           id="path158" />
      </g>
      <g
         id="g160">
        <g
           id="g162" />
        <g
           id="g174">
          <g
             clip-path="url(#clipPath166)"
             id="g172"
             style="opacity:0.39999402">
            <g
               transform="translate(289.2217,320.6538)"
               id="g170">
              <path
                 d="m 0,0 c 0,-0.85 -0.688,-1.539 -1.538,-1.539 -0.85,0 -1.539,0.689 -1.539,1.539 0,0.85 0.689,1.539 1.539,1.539 C -0.688,1.539 0,0.85 0,0"
                 style="fill:#bdc3c7;fill-opacity:1;fill-rule:nonzero;stroke:none"
                 id="path168" />
            </g>
          </g>
        </g>
      </g>
      <g
         id="g176">
        <g
           id="g178" />
        <g
           id="g190">
          <g
             clip-path="url(#clipPath182)"
             id="g188"
             style="opacity:0.39999402">
            <g
               transform="translate(287.6836,318.2358)"
               id="g186">
              <path
                 d="m 0,0 c -0.85,0 -1.539,-0.689 -1.539,-1.538 v -5.495 c 0,-0.85 0.689,-1.539 1.539,-1.539 0.85,0 1.538,0.689 1.538,1.539 v 5.495 C 1.538,-0.689 0.85,0 0,0"
                 style="fill:#bdc3c7;fill-opacity:1;fill-rule:nonzero;stroke:none"
                 id="path184" />
            </g>
          </g>
        </g>
      </g>
    </g>
  </g>
</svg>
